<?xml version="1.0" encoding="UTF-8" standalone="no"?>
<svg
   xmlns:dc="http://purl.org/dc/elements/1.1/"
   xmlns:cc="http://creativecommons.org/ns#"
   xmlns:rdf="http://www.w3.org/1999/02/22-rdf-syntax-ns#"
   xmlns:svg="http://www.w3.org/2000/svg"
   xmlns="http://www.w3.org/2000/svg"
   xmlns:sodipodi="http://sodipodi.sourceforge.net/DTD/sodipodi-0.dtd"
   xmlns:inkscape="http://www.inkscape.org/namespaces/inkscape"
   viewBox="0 -256 1792 1792"
   id="svg3215"
   version="1.1"
   inkscape:version="0.48.3.1 r9886"
   width="100%"
   height="100%"
   sodipodi:docname="user_font_awesome.svg">
  <metadata
     id="metadata3225">
    <rdf:RDF>
      <cc:Work
         rdf:about="">
        <dc:format>image/svg+xml</dc:format>
        <dc:type
           rdf:resource="http://purl.org/dc/dcmitype/StillImage" />
      </cc:Work>
    </rdf:RDF>
  </metadata>
  <defs
     id="defs3223" />
  <sodipodi:namedview
     pagecolor="#ffffff"
     bordercolor="#666666"
     borderopacity="1"
     objecttolerance="10"
     gridtolerance="10"
     guidetolerance="10"
     inkscape:pageopacity="0"
     inkscape:pageshadow="2"
     inkscape:window-width="640"
     inkscape:window-height="480"
     id="namedview3221"
     showgrid="false"
     inkscape:zoom="0.13169643"
     inkscape:cx="896"
     inkscape:cy="896"
     inkscape:window-x="0"
     inkscape:window-y="25"
     inkscape:window-maximized="0"
     inkscape:current-layer="svg3215" />
  <g
     transform="matrix(1,0,0,-1,197.42373,1300.6102)"
     id="g3217">
    <path
       d="M 1408,131 Q 1408,11 1335,-58.5 1262,-128 1141,-128 H 267 Q 146,-128 73,-58.5 0,11 0,131 0,184 3.5,234.5 7,285 17.5,343.5 28,402 44,452 q 16,50 43,97.5 27,47.5 62,81 35,33.5 85.5,53.5 50.5,20 111.5,20 9,0 42,-21.5 33,-21.5 74.5,-48 41.5,-26.5 108,-48 Q 637,565 704,565 q 67,0 133.5,21.5 66.5,21.5 108,48 41.5,26.5 74.5,48 33,21.5 42,21.5 61,0 111.5,-20 50.5,-20 85.5,-53.5 35,-33.5 62,-81 27,-47.5 43,-97.5 16,-50 26.5,-108.5 10.5,-58.5 14,-109 Q 1408,184 1408,131 z m -320,893 Q 1088,865 975.5,752.5 863,640 704,640 545,640 432.5,752.5 320,865 320,1024 320,1183 432.5,1295.5 545,1408 704,1408 863,1408 975.5,1295.5 1088,1183 1088,1024 z"
       id="path3219"
       inkscape:connector-curvature="0"
       style="fill:currentColor" />
  </g>
</svg>
